<svg id="visual" viewBox="0 0 900 600" width="900" height="600" xmlns="http://www.w3.org/2000/svg" xmlns:xlink="http://www.w3.org/1999/xlink" version="1.1"><rect x="0" y="0" width="900" height="600" fill="#001220"></rect><defs><linearGradient id="grad1_0" x1="33.3%" y1="0%" x2="100%" y2="100%"><stop offset="20%" stop-color="#fbae3c" stop-opacity="1"></stop><stop offset="80%" stop-color="#fbae3c" stop-opacity="1"></stop></linearGradient></defs><defs><linearGradient id="grad1_1" x1="33.3%" y1="0%" x2="100%" y2="100%"><stop offset="20%" stop-color="#fbae3c" stop-opacity="1"></stop><stop offset="80%" stop-color="#e1685e" stop-opacity="1"></stop></linearGradient></defs><defs><linearGradient id="grad1_2" x1="33.3%" y1="0%" x2="100%" y2="100%"><stop offset="20%" stop-color="#96446e" stop-opacity="1"></stop><stop offset="80%" stop-color="#e1685e" stop-opacity="1"></stop></linearGradient></defs><defs><linearGradient id="grad1_3" x1="33.3%" y1="0%" x2="100%" y2="100%"><stop offset="20%" stop-color="#96446e" stop-opacity="1"></stop><stop offset="80%" stop-color="#3d3056" stop-opacity="1"></stop></linearGradient></defs><defs><linearGradient id="grad1_4" x1="33.3%" y1="0%" x2="100%" y2="100%"><stop offset="20%" stop-color="#001220" stop-opacity="1"></stop><stop offset="80%" stop-color="#3d3056" stop-opacity="1"></stop></linearGradient></defs><defs><linearGradient id="grad2_0" x1="0%" y1="0%" x2="66.7%" y2="100%"><stop offset="20%" stop-color="#fbae3c" stop-opacity="1"></stop><stop offset="80%" stop-color="#fbae3c" stop-opacity="1"></stop></linearGradient></defs><defs><linearGradient id="grad2_1" x1="0%" y1="0%" x2="66.7%" y2="100%"><stop offset="20%" stop-color="#e1685e" stop-opacity="1"></stop><stop offset="80%" stop-color="#fbae3c" stop-opacity="1"></stop></linearGradient></defs><defs><linearGradient id="grad2_2" x1="0%" y1="0%" x2="66.7%" y2="100%"><stop offset="20%" stop-color="#e1685e" stop-opacity="1"></stop><stop offset="80%" stop-color="#96446e" stop-opacity="1"></stop></linearGradient></defs><defs><linearGradient id="grad2_3" x1="0%" y1="0%" x2="66.7%" y2="100%"><stop offset="20%" stop-color="#3d3056" stop-opacity="1"></stop><stop offset="80%" stop-color="#96446e" stop-opacity="1"></stop></linearGradient></defs><defs><linearGradient id="grad2_4" x1="0%" y1="0%" x2="66.7%" y2="100%"><stop offset="20%" stop-color="#3d3056" stop-opacity="1"></stop><stop offset="80%" stop-color="#001220" stop-opacity="1"></stop></linearGradient></defs><g transform="translate(900, 0)"><path d="M0 405.6C-49.1 411.3 -98.3 416.9 -125.3 385.8C-152.4 354.7 -157.3 286.8 -182.2 250.8C-207.1 214.8 -251.9 210.7 -254 184.6C-256.2 158.5 -215.8 110.4 -234 76C-252.1 41.6 -328.9 20.8 -405.6 0L0 0Z" fill="#18223c"></path><path d="M0 324.5C-39.3 329 -78.6 333.5 -100.3 308.6C-121.9 283.7 -125.9 229.4 -145.8 200.6C-165.7 171.8 -201.5 168.5 -203.2 147.7C-205 126.8 -172.6 88.3 -187.2 60.8C-201.7 33.3 -263.1 16.6 -324.5 0L0 0Z" fill="#683a67"></path><path d="M0 243.4C-29.5 246.8 -59 250.1 -75.2 231.5C-91.4 212.8 -94.4 172.1 -109.3 150.5C-124.2 128.9 -151.1 126.4 -152.4 110.7C-153.7 95.1 -129.5 66.3 -140.4 45.6C-151.3 25 -197.3 12.5 -243.4 0L0 0Z" fill="#c0526a"></path><path d="M0 162.2C-19.7 164.5 -39.3 166.8 -50.1 154.3C-61 141.9 -62.9 114.7 -72.9 100.3C-82.8 85.9 -100.7 84.3 -101.6 73.8C-102.5 63.4 -86.3 44.2 -93.6 30.4C-100.9 16.6 -131.6 8.3 -162.2 0L0 0Z" fill="#f6884d"></path><path d="M0 81.1C-9.8 82.3 -19.7 83.4 -25.1 77.2C-30.5 70.9 -31.5 57.4 -36.4 50.2C-41.4 43 -50.4 42.1 -50.8 36.9C-51.2 31.7 -43.2 22.1 -46.8 15.2C-50.4 8.3 -65.8 4.2 -81.1 0L0 0Z" fill="#fbae3c"></path></g><g transform="translate(0, 600)"><path d="M0 -405.6C24.5 -351.8 49 -297.9 95.8 -294.8C142.6 -291.7 211.6 -339.4 235.1 -323.6C258.6 -307.8 236.7 -228.7 260.5 -189.3C284.3 -149.9 354 -150.3 385.8 -125.3C417.6 -100.4 411.6 -50.2 405.6 0L0 0Z" fill="#18223c"></path><path d="M0 -324.5C19.6 -281.4 39.2 -238.3 76.6 -235.9C114.1 -233.4 169.3 -271.5 188.1 -258.9C206.9 -246.3 189.3 -182.9 208.4 -151.4C227.5 -119.9 283.2 -120.2 308.6 -100.3C334.1 -80.3 329.3 -40.2 324.5 0L0 0Z" fill="#683a67"></path><path d="M0 -243.4C14.7 -211.1 29.4 -178.8 57.5 -176.9C85.5 -175 127 -203.6 141.1 -194.2C155.2 -184.7 142 -137.2 156.3 -113.6C170.6 -89.9 212.4 -90.2 231.5 -75.2C250.6 -60.3 247 -30.1 243.4 0L0 0Z" fill="#c0526a"></path><path d="M0 -162.2C9.8 -140.7 19.6 -119.2 38.3 -117.9C57 -116.7 84.6 -135.7 94 -129.4C103.5 -123.1 94.7 -91.5 104.2 -75.7C113.7 -59.9 141.6 -60.1 154.3 -50.1C167 -40.2 164.6 -20.1 162.2 0L0 0Z" fill="#f6884d"></path><path d="M0 -81.1C4.9 -70.4 9.8 -59.6 19.2 -59C28.5 -58.3 42.3 -67.9 47 -64.7C51.7 -61.6 47.3 -45.7 52.1 -37.9C56.9 -30 70.8 -30.1 77.2 -25.1C83.5 -20.1 82.3 -10 81.1 0L0 0Z" fill="#fbae3c"></path></g></svg>