<svg id="visual" viewBox="0 0 900 600" width="900" height="600" xmlns="http://www.w3.org/2000/svg" xmlns:xlink="http://www.w3.org/1999/xlink" version="1.1"><rect x="0" y="0" width="900" height="600" fill="#001220"></rect><path d="M0 421L21.5 419.3C43 417.7 86 414.3 128.8 412.8C171.7 411.3 214.3 411.7 257.2 402C300 392.3 343 372.7 385.8 366.3C428.7 360 471.3 367 514.2 379.2C557 391.3 600 408.7 642.8 417C685.7 425.3 728.3 424.7 771.2 413.8C814 403 857 382 878.5 371.5L900 361L900 601L878.5 601C857 601 814 601 771.2 601C728.3 601 685.7 601 642.8 601C600 601 557 601 514.2 601C471.3 601 428.7 601 385.8 601C343 601 300 601 257.2 601C214.3 601 171.7 601 128.8 601C86 601 43 601 21.5 601L0 601Z" fill="#fa7268"></path><path d="M0 449L21.5 446.7C43 444.3 86 439.7 128.8 433.8C171.7 428 214.3 421 257.2 427.5C300 434 343 454 385.8 457.3C428.7 460.7 471.3 447.3 514.2 434.2C557 421 600 408 642.8 405.2C685.7 402.3 728.3 409.7 771.2 411C814 412.3 857 407.7 878.5 405.3L900 403L900 601L878.5 601C857 601 814 601 771.2 601C728.3 601 685.7 601 642.8 601C600 601 557 601 514.2 601C471.3 601 428.7 601 385.8 601C343 601 300 601 257.2 601C214.3 601 171.7 601 128.8 601C86 601 43 601 21.5 601L0 601Z" fill="#ef5f67"></path><path d="M0 444L21.5 446.3C43 448.7 86 453.3 128.8 457.5C171.7 461.7 214.3 465.3 257.2 470.3C300 475.3 343 481.7 385.8 487.7C428.7 493.7 471.3 499.3 514.2 502C557 504.7 600 504.3 642.8 498.7C685.7 493 728.3 482 771.2 473.5C814 465 857 459 878.5 456L900 453L900 601L878.5 601C857 601 814 601 771.2 601C728.3 601 685.7 601 642.8 601C600 601 557 601 514.2 601C471.3 601 428.7 601 385.8 601C343 601 300 601 257.2 601C214.3 601 171.7 601 128.8 601C86 601 43 601 21.5 601L0 601Z" fill="#e34c67"></path><path d="M0 496L21.5 498C43 500 86 504 128.8 506.3C171.7 508.7 214.3 509.3 257.2 510.2C300 511 343 512 385.8 514C428.7 516 471.3 519 514.2 516.5C557 514 600 506 642.8 502.2C685.7 498.3 728.3 498.7 771.2 496.8C814 495 857 491 878.5 489L900 487L900 601L878.5 601C857 601 814 601 771.2 601C728.3 601 685.7 601 642.8 601C600 601 557 601 514.2 601C471.3 601 428.7 601 385.8 601C343 601 300 601 257.2 601C214.3 601 171.7 601 128.8 601C86 601 43 601 21.5 601L0 601Z" fill="#d53867"></path><path d="M0 558L21.5 552.8C43 547.7 86 537.3 128.8 532.7C171.7 528 214.3 529 257.2 532.3C300 535.7 343 541.3 385.8 540.7C428.7 540 471.3 533 514.2 535C557 537 600 548 642.8 555.5C685.7 563 728.3 567 771.2 567.8C814 568.7 857 566.3 878.5 565.2L900 564L900 601L878.5 601C857 601 814 601 771.2 601C728.3 601 685.7 601 642.8 601C600 601 557 601 514.2 601C471.3 601 428.7 601 385.8 601C343 601 300 601 257.2 601C214.3 601 171.7 601 128.8 601C86 601 43 601 21.5 601L0 601Z" fill="#c62368"></path></svg>