<svg id="visual" viewBox="0 0 900 600" width="900" height="600" xmlns="http://www.w3.org/2000/svg" xmlns:xlink="http://www.w3.org/1999/xlink" version="1.1"><path d="M0 157L82 157L82 211L164 211L164 109L245 109L245 109L327 109L327 157L409 157L409 295L491 295L491 181L573 181L573 127L655 127L655 229L736 229L736 241L818 241L818 277L900 277L900 181L900 0L900 0L818 0L818 0L736 0L736 0L655 0L655 0L573 0L573 0L491 0L491 0L409 0L409 0L327 0L327 0L245 0L245 0L164 0L164 0L82 0L82 0L0 0Z" fill="#fa7268"></path><path d="M0 229L82 229L82 289L164 289L164 193L245 193L245 157L327 157L327 223L409 223L409 349L491 349L491 229L573 229L573 175L655 175L655 277L736 277L736 319L818 319L818 319L900 319L900 241L900 179L900 275L818 275L818 239L736 239L736 227L655 227L655 125L573 125L573 179L491 179L491 293L409 293L409 155L327 155L327 107L245 107L245 107L164 107L164 209L82 209L82 155L0 155Z" fill="#ea5e66"></path><path d="M0 349L82 349L82 391L164 391L164 457L245 457L245 397L327 397L327 439L409 439L409 463L491 463L491 493L573 493L573 391L655 391L655 361L736 361L736 433L818 433L818 421L900 421L900 439L900 239L900 317L818 317L818 317L736 317L736 275L655 275L655 173L573 173L573 227L491 227L491 347L409 347L409 221L327 221L327 155L245 155L245 191L164 191L164 287L82 287L82 227L0 227Z" fill="#d84a64"></path><path d="M0 475L82 475L82 439L164 439L164 529L245 529L245 463L327 463L327 505L409 505L409 529L491 529L491 541L573 541L573 475L655 475L655 481L736 481L736 523L818 523L818 535L900 535L900 511L900 437L900 419L818 419L818 431L736 431L736 359L655 359L655 389L573 389L573 491L491 491L491 461L409 461L409 437L327 437L327 395L245 395L245 455L164 455L164 389L82 389L82 347L0 347Z" fill="#c53762"></path><path d="M0 601L82 601L82 601L164 601L164 601L245 601L245 601L327 601L327 601L409 601L409 601L491 601L491 601L573 601L573 601L655 601L655 601L736 601L736 601L818 601L818 601L900 601L900 601L900 509L900 533L818 533L818 521L736 521L736 479L655 479L655 473L573 473L573 539L491 539L491 527L409 527L409 503L327 503L327 461L245 461L245 527L164 527L164 437L82 437L82 473L0 473Z" fill="#b0235f"></path></svg>